<?xml version="1.0" encoding="UTF-8"?>
<svg width="480px" height="120px" viewBox="0 0 480 120" version="1.1" xmlns="http://www.w3.org/2000/svg" xmlns:xlink="http://www.w3.org/1999/xlink">
    <!-- Generator: Sketch 48.1 (47250) - http://www.bohemiancoding.com/sketch -->
    <title>balkanruby-logo-white</title>
    <desc>Created with Sketch.</desc>
    <defs></defs>
    <g id="Page-1" stroke="none" stroke-width="1" fill="none" fill-rule="evenodd">
        <g id="balkanruby-logo-white">
            <g id="logo-white" transform="translate(1.000000, 1.000000)">
                <path d="M121.671875,81 L121.671875,35.5 L138.015625,35.5 C143.869821,35.5 148.322901,36.5729059 151.375,38.71875 C154.427099,40.8645941 155.953125,43.9791462 155.953125,48.0625 C155.953125,50.4166784 155.411464,52.427075 154.328125,54.09375 C153.244786,55.760425 151.651052,56.9895794 149.546875,57.78125 C151.921887,58.4062531 153.744785,59.5729081 155.015625,61.28125 C156.286465,62.9895919 156.921875,65.0729044 156.921875,67.53125 C156.921875,71.9896056 155.510431,75.3385305 152.6875,77.578125 C149.864569,79.8177195 145.682319,80.9583331 140.140625,81 L121.671875,81 Z M132.640625,61.65625 L132.640625,72.5625 L139.828125,72.5625 C141.807302,72.5625 143.32812,72.1093795 144.390625,71.203125 C145.45313,70.2968705 145.984375,69.0208416 145.984375,67.375 C145.984375,63.5833144 144.098977,61.6770834 140.328125,61.65625 L132.640625,61.65625 Z M132.640625,54.46875 L138.359375,54.46875 C140.75522,54.4479166 142.463537,54.0104209 143.484375,53.15625 C144.505213,52.3020791 145.015625,51.041675 145.015625,49.375 C145.015625,47.4583238 144.463547,46.0781292 143.359375,45.234375 C142.255203,44.3906208 140.473971,43.96875 138.015625,43.96875 L132.640625,43.96875 L132.640625,54.46875 Z M181.515625,81 C181.140623,80.3124966 180.807293,79.30209 180.515625,77.96875 C178.578115,80.4062622 175.869809,81.625 172.390625,81.625 C169.203109,81.625 166.494803,80.661468 164.265625,78.734375 C162.036447,76.807282 160.921875,74.3854312 160.921875,71.46875 C160.921875,67.802065 162.276028,65.0312594 164.984375,63.15625 C167.692722,61.2812406 171.630182,60.34375 176.796875,60.34375 L180.046875,60.34375 L180.046875,58.5625 C180.046875,55.4583178 178.703138,53.90625 176.015625,53.90625 C173.515613,53.90625 172.265625,55.1354044 172.265625,57.59375 L161.734375,57.59375 C161.734375,54.3229003 163.124986,51.6666769 165.90625,49.625 C168.687514,47.5833231 172.234353,46.5625 176.546875,46.5625 C180.859397,46.5625 184.265613,47.6145728 186.765625,49.71875 C189.265637,51.8229272 190.546875,54.708315 190.609375,58.375 L190.609375,73.34375 C190.651042,76.4479322 191.130204,78.8229084 192.046875,80.46875 L192.046875,81 L181.515625,81 Z M174.921875,74.125 C176.234382,74.125 177.322912,73.8437528 178.1875,73.28125 C179.052088,72.7187472 179.671873,72.0833369 180.046875,71.375 L180.046875,65.96875 L176.984375,65.96875 C173.31769,65.96875 171.484375,67.6145669 171.484375,70.90625 C171.484375,71.8645881 171.807288,72.640622 172.453125,73.234375 C173.098962,73.828128 173.92187,74.125 174.921875,74.125 Z M207.546875,81 L196.984375,81 L196.984375,33 L207.546875,33 L207.546875,81 Z M227.609375,68.40625 L224.640625,71.375 L224.640625,81 L214.109375,81 L214.109375,32.96875 L224.640625,32.96875 L224.640625,58.46875 L225.703125,57.0625 L233.640625,47.1875 L246.265625,47.1875 L234.421875,61.09375 L247.046875,81 L234.984375,81 L227.609375,68.40625 Z M268.078125,81 C267.703123,80.3124966 267.369793,79.30209 267.078125,77.96875 C265.140615,80.4062622 262.432309,81.625 258.953125,81.625 C255.765609,81.625 253.057303,80.661468 250.828125,78.734375 C248.598947,76.807282 247.484375,74.3854312 247.484375,71.46875 C247.484375,67.802065 248.838528,65.0312594 251.546875,63.15625 C254.255222,61.2812406 258.192682,60.34375 263.359375,60.34375 L266.609375,60.34375 L266.609375,58.5625 C266.609375,55.4583178 265.265638,53.90625 262.578125,53.90625 C260.078112,53.90625 258.828125,55.1354044 258.828125,57.59375 L248.296875,57.59375 C248.296875,54.3229003 249.687486,51.6666769 252.46875,49.625 C255.250014,47.5833231 258.796853,46.5625 263.109375,46.5625 C267.421897,46.5625 270.828112,47.6145728 273.328125,49.71875 C275.828138,51.8229272 277.109375,54.708315 277.171875,58.375 L277.171875,73.34375 C277.213542,76.4479322 277.692704,78.8229084 278.609375,80.46875 L278.609375,81 L268.078125,81 Z M261.484375,74.125 C262.796882,74.125 263.885412,73.8437528 264.75,73.28125 C265.614588,72.7187472 266.234373,72.0833369 266.609375,71.375 L266.609375,65.96875 L263.546875,65.96875 C259.88019,65.96875 258.046875,67.6145669 258.046875,70.90625 C258.046875,71.8645881 258.369788,72.640622 259.015625,73.234375 C259.661462,73.828128 260.48437,74.125 261.484375,74.125 Z M292.671875,47.1875 L293.015625,51.15625 C295.34897,48.0937347 298.567688,46.5625 302.671875,46.5625 C306.192726,46.5625 308.822908,47.6145728 310.5625,49.71875 C312.302092,51.8229272 313.203125,54.9895622 313.265625,59.21875 L313.265625,81 L302.703125,81 L302.703125,59.65625 C302.703125,57.9479081 302.359378,56.6927123 301.671875,55.890625 C300.984372,55.0885377 299.734384,54.6875 297.921875,54.6875 C295.859365,54.6875 294.32813,55.4999919 293.328125,57.125 L293.328125,81 L282.796875,81 L282.796875,47.1875 L292.671875,47.1875 Z M352.421875,64.9375 L346.484375,64.9375 L346.484375,81 L335.515625,81 L335.515625,35.5 L353.421875,35.5 C358.817735,35.5 363.036443,36.6979047 366.078125,39.09375 C369.119807,41.4895953 370.640625,44.8749781 370.640625,49.25 C370.640625,52.4166825 370.000006,55.0416563 368.71875,57.125 C367.437494,59.2083438 365.432305,60.8958269 362.703125,62.1875 L372.203125,80.53125 L372.203125,81 L360.453125,81 L352.421875,64.9375 Z M346.484375,56.46875 L353.421875,56.46875 C355.505219,56.46875 357.072911,55.9218805 358.125,54.828125 C359.177089,53.7343695 359.703125,52.2083431 359.703125,50.25 C359.703125,48.2916569 359.17188,46.7552139 358.109375,45.640625 C357.04687,44.5260361 355.484385,43.96875 353.421875,43.96875 L346.484375,43.96875 L346.484375,56.46875 Z M396.921875,77.34375 C394.692697,80.1979309 391.682311,81.625 387.890625,81.625 C384.182273,81.625 381.37501,80.5468858 379.46875,78.390625 C377.56249,76.2343642 376.609375,73.1354369 376.609375,69.09375 L376.609375,47.1875 L387.140625,47.1875 L387.140625,69.15625 C387.140625,72.0520978 388.546861,73.5 391.359375,73.5 C393.776054,73.5 395.494787,72.6354253 396.515625,70.90625 L396.515625,47.1875 L407.109375,47.1875 L407.109375,81 L397.234375,81 L396.921875,77.34375 Z M444.265625,64.375 C444.265625,69.9166944 443.119803,74.1770684 440.828125,77.15625 C438.536447,80.1354316 435.307312,81.625 431.140625,81.625 C427.703108,81.625 424.932302,80.2604303 422.828125,77.53125 L422.390625,81 L412.953125,81 L412.953125,33 L423.484375,33 L423.484375,49.90625 C425.442718,47.6770722 427.973943,46.5625 431.078125,46.5625 C435.286479,46.5625 438.536447,48.0729016 440.828125,51.09375 C443.119803,54.1145984 444.265625,58.3645559 444.265625,63.84375 L444.265625,64.375 Z M433.703125,63.71875 C433.703125,60.4687337 433.270838,58.1510486 432.40625,56.765625 C431.541662,55.3802014 430.213551,54.6875 428.421875,54.6875 C426.046863,54.6875 424.401046,55.5937409 423.484375,57.40625 L423.484375,70.84375 C424.380213,72.6354256 426.046863,73.53125 428.484375,73.53125 C430.963554,73.53125 432.536455,72.3229288 433.203125,69.90625 C433.53646,68.7187441 433.703125,66.6562647 433.703125,63.71875 Z M462.078125,66.25 L467.703125,47.1875 L478.984375,47.1875 L465.203125,86.65625 L464.609375,88.09375 C462.651032,92.4687719 459.192733,94.65625 454.234375,94.65625 C452.859368,94.65625 451.411466,94.4479187 449.890625,94.03125 L449.890625,86.5 L451.265625,86.5 C452.744799,86.5 453.874996,86.2864605 454.65625,85.859375 C455.437504,85.4322895 456.015623,84.6666722 456.390625,83.5625 L457.234375,81.3125 L445.484375,47.1875 L456.734375,47.1875 L462.078125,66.25 Z" id="Balkan-Ruby" fill="#FFFFFF"></path>
                <g id="ruby" stroke-width="1" stroke="#FFFFFF">
                    <path d="M50,118 L91,56" id="Shape" stroke-width="2"></path>
                    <path d="M50,118 L94,80" id="Shape" stroke-width="2"></path>
                    <path d="M50,118 L9,56" id="Shape" stroke-width="2"></path>
                    <path d="M9,56 L75,80" id="Shape" stroke-width="2"></path>
                    <path d="M92,56 L99,40" id="Shape" stroke-width="2"></path>
                    <path d="M99,39 L75,29" id="Shape" stroke-width="2"></path>
                    <path d="M94,80 L99,40" id="Shape" stroke-width="2"></path>
                    <path d="M92,56 L95,80" id="Shape" stroke-width="2"></path>
                    <path d="M75,30 L93,21" id="Shape" stroke-width="2"></path>
                    <path d="M93,21 L99,40" id="Shape" stroke-width="2"></path>
                    <path d="M11,26 L32,14" id="Shape" stroke-width="2"></path>
                    <path d="M9,72 L10,26" id="Shape" stroke-width="2"></path>
                    <path d="M9,56 L0,38" id="Shape" stroke-width="2"></path>
                    <path d="M0,38 L11,26" id="Shape" stroke-width="2"></path>
                    <path d="M32,14 L75,29" id="Shape" stroke-width="2"></path>
                    <path d="M11,26 L32,4" id="Shape" stroke-width="2"></path>
                    <path d="M32,15 L32,4" id="Shape" stroke-width="2"></path>
                    <path d="M32,4 L75,0" id="Shape" stroke-width="2"></path>
                    <path d="M75,0 L75,29" id="Shape" stroke-width="2"></path>
                    <path d="M75,0 L93,21" id="Shape" stroke-width="2"></path>
                    <path d="M92,56 L55,72" id="Shape" stroke-width="2"></path>
                    <path d="M55,72 L50,118" id="Shape" stroke-width="2"></path>
                    <path d="M50,118 L9,72" id="Shape" stroke-width="2"></path>
                    <path d="M9,72 L0,38" id="Shape" stroke-width="2"></path>
                </g>
            </g>
        </g>
    </g>
</svg>