<?xml version="1.0" encoding="UTF-8"?>
<svg width="325px" height="156px" viewBox="0 0 325 156" version="1.1" xmlns="http://www.w3.org/2000/svg" xmlns:xlink="http://www.w3.org/1999/xlink">
    <!-- Generator: Sketch 48.2 (47327) - http://www.bohemiancoding.com/sketch -->
    <title>Artboard</title>
    <desc>Created with Sketch.</desc>
    <defs></defs>
    <g id="Page-1" stroke="none" stroke-width="1" fill="none" fill-rule="evenodd">
        <g id="Artboard">
            <g id="balkanruby-header-logo" transform="translate(0.000000, 1.000000)">
                <g id="ruby" transform="translate(125.000000, 0.000000)" stroke="#FFFFFF" stroke-width="2">
                    <path d="M37.506053,87.8900558 L68.5018891,41.6728156" id="Shape"></path>
                    <path d="M37.506053,87.8900558 L70.586906,59.2884965" id="Shape"></path>
                    <path d="M37.506053,87.8900558 L7.08955662,41.6728156" id="Shape"></path>
                    <path d="M7.08955662,41.6728156 L56.6879229,59.2884965" id="Shape"></path>
                    <path d="M68.5018891,41.6728156 L73.9985734,29.5502521" id="Shape"></path>
                    <path d="M73.9985734,29.5502521 L55.8024192,21.7841206" id="Shape"></path>
                    <path d="M70.586906,59.2884965 L73.9985734,29.5502521" id="Shape"></path>
                    <path d="M68.5018891,41.6728156 L70.586906,59.2884965" id="Shape"></path>
                    <path d="M55.8024192,21.7841206 L69.5444868,15.3439141" id="Shape"></path>
                    <path d="M69.5444868,15.3439141 L73.9985734,29.5502521" id="Shape"></path>
                    <path d="M8.03729157,19.5111066 L23.9588819,10.797886" id="Shape"></path>
                    <path d="M7.08955662,53.795201 L8.03729157,19.5111066" id="Shape"></path>
                    <path d="M7.08955662,41.6728156 L0.0763180723,28.4137451" id="Shape"></path>
                    <path d="M0.0763180723,28.4137451 L8.03729157,19.5111066" id="Shape"></path>
                    <path d="M23.9588819,10.797886 L55.8024192,21.7841206" id="Shape"></path>
                    <path d="M8.03729157,19.5111066 L23.9588819,2.86496709" id="Shape"></path>
                    <path d="M23.9588819,2.86496709 L55.8024192,0.00124734158" id="Shape"></path>
                    <path d="M55.8024192,0.00124734158 L69.5444868,15.3439141" id="Shape"></path>
                    <path d="M68.5018891,41.6728156 L41.1126169,53.795201" id="Shape"></path>
                    <path d="M41.1126169,53.795201 L37.506053,87.8900558" id="Shape"></path>
                    <path d="M37.506053,87.8900558 L7.08955662,53.795201" id="Shape"></path>
                    <path d="M7.08955662,53.795201 L0.0763180723,28.4137451" id="Shape"></path>
                </g>
                <path d="M0,142.602837 L0,101.297872 L14.8368794,101.297872 C20.1513268,101.297872 24.1938396,102.271858 26.964539,104.219858 C29.7352384,106.167858 31.1205674,108.995253 31.1205674,112.702128 C31.1205674,114.839254 30.6288465,116.664295 29.6453901,118.177305 C28.6619336,119.690315 27.2151396,120.806143 25.3049645,121.524823 C27.4610037,122.092201 29.1158335,123.151292 30.2695035,124.702128 C31.4231736,126.252963 32,128.144197 32,130.375887 C32,134.423188 30.7186889,137.463347 28.1560284,139.496454 C25.5933678,141.529561 21.7967155,142.565012 16.7659574,142.602837 L0,142.602837 Z M9.9574468,125.042553 L9.9574468,134.943262 L16.4822695,134.943262 C18.2789688,134.943262 19.6595696,134.531919 20.6241135,133.70922 C21.5886573,132.886521 22.070922,131.72814 22.070922,130.234043 C22.070922,126.791945 20.3593552,125.061466 16.9361702,125.042553 L9.9574468,125.042553 Z M9.9574468,118.51773 L15.1489362,118.51773 C17.3238879,118.498818 18.8746999,118.101659 19.8014184,117.326241 C20.728137,116.550824 21.1914894,115.406627 21.1914894,113.893617 C21.1914894,112.153656 20.6903123,110.900713 19.6879433,110.134752 C18.6855742,109.36879 17.0685691,108.985816 14.8368794,108.985816 L9.9574468,108.985816 L9.9574468,118.51773 Z M54.3262411,142.602837 C53.9858139,141.97872 53.6832165,141.061472 53.4184397,139.851064 C51.6595657,142.063841 49.2009614,143.170213 46.0425532,143.170213 C43.1489217,143.170213 40.6903174,142.295517 38.6666667,140.546099 C36.6430159,138.796682 35.6312057,136.598122 35.6312057,133.950355 C35.6312057,130.621733 36.8605078,128.106391 39.3191489,126.404255 C41.7777901,124.702119 45.3522224,123.851064 50.0425532,123.851064 L52.9929078,123.851064 L52.9929078,122.234043 C52.9929078,119.416062 51.7730618,118.007092 49.3333333,118.007092 C47.0638184,118.007092 45.929078,119.12292 45.929078,121.35461 L36.3687943,121.35461 C36.3687943,118.385328 37.631193,115.974005 40.1560284,114.120567 C42.6808637,112.26713 45.9006896,111.340426 49.8156028,111.340426 C53.730516,111.340426 56.8226837,112.295499 59.0921986,114.205674 C61.3617135,116.115849 62.5248224,118.735208 62.5815603,122.06383 L62.5815603,135.652482 C62.6193855,138.470463 63.0543694,140.62647 63.8865248,142.120567 L63.8865248,142.602837 L54.3262411,142.602837 Z M48.3404255,136.361702 C49.5319209,136.361702 50.5200906,136.106386 51.3049645,135.595745 C52.0898384,135.085104 52.6524806,134.508277 52.9929078,133.865248 L52.9929078,128.957447 L50.212766,128.957447 C46.8841441,128.957447 45.2198582,130.451522 45.2198582,133.439716 C45.2198582,134.309697 45.5129994,135.014182 46.0992908,135.553191 C46.6855821,136.092201 47.4326196,136.361702 48.3404255,136.361702 Z M77.9574468,142.602837 L68.3687943,142.602837 L68.3687943,99.028369 L77.9574468,99.028369 L77.9574468,142.602837 Z M96.170213,131.170213 L93.475177,133.865248 L93.475177,142.602837 L83.9148936,142.602837 L83.9148936,99 L93.475177,99 L93.475177,122.148936 L94.439716,120.87234 L101.64539,111.907801 L113.106383,111.907801 L102.35461,124.531915 L113.815603,142.602837 L102.865248,142.602837 L96.170213,131.170213 Z M132.907801,142.602837 C132.567374,141.97872 132.264777,141.061472 132,139.851064 C130.241126,142.063841 127.782522,143.170213 124.624113,143.170213 C121.730482,143.170213 119.271878,142.295517 117.248227,140.546099 C115.224576,138.796682 114.212766,136.598122 114.212766,133.950355 C114.212766,130.621733 115.442068,128.106391 117.900709,126.404255 C120.35935,124.702119 123.933783,123.851064 128.624113,123.851064 L131.574468,123.851064 L131.574468,122.234043 C131.574468,119.416062 130.354622,118.007092 127.914894,118.007092 C125.645379,118.007092 124.510638,119.12292 124.510638,121.35461 L114.950355,121.35461 C114.950355,118.385328 116.212753,115.974005 118.737589,114.120567 C121.262424,112.26713 124.48225,111.340426 128.397163,111.340426 C132.312076,111.340426 135.404244,112.295499 137.673759,114.205674 C139.943274,116.115849 141.106383,118.735208 141.163121,122.06383 L141.163121,135.652482 C141.200946,138.470463 141.63593,140.62647 142.468085,142.120567 L142.468085,142.602837 L132.907801,142.602837 Z M126.921986,136.361702 C128.113481,136.361702 129.101651,136.106386 129.886525,135.595745 C130.671399,135.085104 131.234041,134.508277 131.574468,133.865248 L131.574468,128.957447 L128.794326,128.957447 C125.465704,128.957447 123.801418,130.451522 123.801418,133.439716 C123.801418,134.309697 124.09456,135.014182 124.680851,135.553191 C125.267142,136.092201 126.01418,136.361702 126.921986,136.361702 Z M155.234043,111.907801 L155.546099,115.510638 C157.664313,112.730483 160.58627,111.340426 164.312057,111.340426 C167.50829,111.340426 169.895973,112.295499 171.475177,114.205674 C173.054381,116.115849 173.87234,118.990525 173.929078,122.829787 L173.929078,142.602837 L164.340426,142.602837 L164.340426,123.22695 C164.340426,121.676115 164.028372,120.536647 163.404255,119.808511 C162.780139,119.080375 161.645398,118.716312 160,118.716312 C158.12765,118.716312 156.737593,119.453893 155.829787,120.929078 L155.829787,142.602837 L146.269504,142.602837 L146.269504,111.907801 L155.234043,111.907801 Z M209.475177,128.021277 L204.085106,128.021277 L204.085106,142.602837 L194.12766,142.602837 L194.12766,101.297872 L210.382979,101.297872 C215.281348,101.297872 219.111097,102.385332 221.87234,104.560284 C224.633584,106.735235 226.014184,109.808491 226.014184,113.780142 C226.014184,116.654861 225.43263,119.037816 224.269504,120.929078 C223.106377,122.82034 221.286064,124.35224 218.808511,125.524823 L227.432624,142.177305 L227.432624,142.602837 L216.765957,142.602837 L209.475177,128.021277 Z M204.085106,120.333333 L210.382979,120.333333 C212.274241,120.333333 213.697395,119.836884 214.652482,118.843972 C215.60757,117.851059 216.085106,116.46573 216.085106,114.687943 C216.085106,112.910157 215.602842,111.515371 214.638298,110.503546 C213.673754,109.491721 212.255329,108.985816 210.382979,108.985816 L204.085106,108.985816 L204.085106,120.333333 Z M249.87234,139.283688 C247.84869,141.874717 245.115856,143.170213 241.673759,143.170213 C238.307312,143.170213 235.758874,142.191499 234.028369,140.234043 C232.297864,138.276586 231.432624,135.463375 231.432624,131.794326 L231.432624,111.907801 L240.992908,111.907801 L240.992908,131.851064 C240.992908,134.479919 242.269491,135.794326 244.822695,135.794326 C247.016559,135.794326 248.576828,135.009464 249.503546,133.439716 L249.503546,111.907801 L259.120567,111.907801 L259.120567,142.602837 L250.156028,142.602837 L249.87234,139.283688 Z M292.851064,127.510638 C292.851064,132.541396 291.810885,136.40897 289.730496,139.113475 C287.650108,141.81798 284.718695,143.170213 280.93617,143.170213 C277.815587,143.170213 275.300246,141.931454 273.390071,139.453901 L272.992908,142.602837 L264.425532,142.602837 L264.425532,99.028369 L273.985816,99.028369 L273.985816,114.375887 C275.763602,112.352236 278.061452,111.340426 280.879433,111.340426 C284.699783,111.340426 287.650108,112.71157 289.730496,115.453901 C291.810885,118.196231 292.851064,122.054349 292.851064,127.028369 L292.851064,127.510638 Z M283.262411,126.914894 C283.262411,123.964524 282.86998,121.860526 282.085106,120.602837 C281.300232,119.345147 280.094571,118.716312 278.468085,118.716312 C276.312046,118.716312 274.817971,119.538999 273.985816,121.184397 L273.985816,133.382979 C274.799058,135.009464 276.312046,135.822695 278.524823,135.822695 C280.775425,135.822695 282.203307,134.725779 282.808511,132.531915 C283.111113,131.453895 283.262411,129.581574 283.262411,126.914894 Z M309.021277,129.212766 L314.12766,111.907801 L324.368794,111.907801 L311.858156,147.737589 L311.319149,149.042553 C309.541362,153.014204 306.401914,155 301.900709,155 C300.652476,155 299.338068,154.810877 297.957447,154.432624 L297.957447,147.595745 L299.205674,147.595745 C300.54847,147.595745 301.574465,147.401893 302.283688,147.014184 C302.992911,146.626476 303.517729,145.931447 303.858156,144.929078 L304.624113,142.886525 L293.957447,111.907801 L304.170213,111.907801 L309.021277,129.212766 Z" id="Balkan-Ruby" fill="#FFFFFF" fill-rule="nonzero"></path>
            </g>
        </g>
    </g>
</svg>